<svg width="159" height="142" viewBox="0 0 159 142" fill="none" xmlns="http://www.w3.org/2000/svg">
<g opacity="0.27">
<path d="M36.6764 36.56C30.4654 44.8856 23.3785 61.9032 37.1379 88.8208C40.337 95.0144 45.7426 99.7831 52.287 102.185C60.4712 105.248 70.8641 105.032 76.0308 88.2898C77.7868 82.5828 78.3675 76.579 77.7377 70.6412C76.4218 58.1308 71.3469 33.421 51.9419 30.3313C49.0724 29.8998 46.1396 30.2507 43.4528 31.3469C40.7661 32.4432 38.4249 34.2442 36.6764 36.56Z" fill="#EFC48E"/>
<path d="M38.6845 38.0538C33.0683 45.8298 26.7444 61.8014 39.6984 87.3458C42.6676 93.1839 47.677 97.7286 53.7757 100.117C61.3386 103.1 70.909 103.006 75.4522 87.2827C77.004 81.8921 77.473 76.2476 76.8322 70.6748C75.474 58.8457 70.5499 35.4984 52.6529 32.3503C50.0245 31.9064 47.3244 32.2052 44.8565 33.2128C42.3887 34.2205 40.2511 35.8971 38.6845 38.0538Z" fill="#DB9D5D"/>
<path d="M101.17 19.4101L128.139 86.6266L88.194 83.631L64.2581 100.911C64.2581 100.911 48.238 103.955 37.2461 77.6991C37.2461 77.6991 24.2212 44.215 48.9183 31.8272L75.5049 36.7616L101.17 19.4101Z" fill="#5A281E"/>
<path style="mix-blend-mode:multiply" d="M101.17 19.4101L128.139 86.6266L88.194 83.631L64.2581 100.911C64.2581 100.911 48.238 103.955 37.2461 77.6991C37.2461 77.6991 24.2212 44.215 48.9183 31.8272L75.5049 36.7616L101.17 19.4101Z" fill="url(#paint0_linear_350_4394)"/>
<path d="M93.9591 31.4212C92.963 32.4617 91.9619 33.4901 90.9374 34.5185L87.9115 37.6174C86.9105 38.6457 85.8819 39.6757 84.8776 40.7195L81.8299 43.799C81.3204 44.3144 80.8272 44.8233 80.2804 45.316L79.4804 46.0469L78.6837 46.7859L75.5384 49.7396L69.2088 55.6672C69.1085 55.7625 68.9861 55.8314 68.8526 55.8677C68.7191 55.904 68.5787 55.9065 68.444 55.8751L36.083 47.4475C35.9844 47.4259 35.8913 47.3841 35.8097 47.3247C35.7281 47.2653 35.6596 47.1896 35.6087 47.1025C35.5578 47.0153 35.5255 46.9185 35.5139 46.8182C35.5023 46.718 35.5115 46.6164 35.5412 46.5199C35.5916 46.3656 35.6861 46.2295 35.813 46.1284C35.9399 46.0272 36.0936 45.9654 36.2552 45.9506L71.0689 42.2877L70.663 42.4506L77.6597 37.5746L81.1653 35.1314C81.7463 34.7239 82.3208 34.3002 82.9075 33.8952C83.4943 33.4901 84.1037 33.1184 84.6929 32.7076L88.2937 30.3958C89.4931 29.6271 90.691 28.8544 91.8977 28.0922L95.5091 25.795L99.131 23.5124L95.7474 26.1188L92.3588 28.6894C91.2255 29.5525 90.0892 30.4121 88.95 31.2681L85.5419 33.8372C84.9731 34.2633 84.4091 34.7016 83.8297 35.1131C83.2503 35.5247 82.6531 35.9151 82.0664 36.3202L78.5607 38.7634L71.5641 43.6393C71.4442 43.7261 71.3048 43.782 71.1582 43.8022L36.3445 47.4651L36.5378 45.9739L68.8948 54.4032L68.1284 54.607L74.458 48.6793L77.622 45.7135L78.4057 44.9655L79.1894 44.2175C79.7094 43.7167 80.2587 43.2419 80.8039 42.7687L84.0858 39.9205C85.1787 38.9683 86.2715 38.0162 87.3734 37.0746L90.6699 34.2394C91.7481 33.2978 92.8483 32.3522 93.9591 31.4212Z" fill="white"/>
<path d="M36.0177 74.0501L38.0442 72.8648C38.0442 72.8648 56.6042 61.0827 59.5479 59.4116C62.4916 57.7404 65.4402 56.0814 68.3944 54.4484C68.4967 54.3917 68.6095 54.3568 68.7259 54.3457C68.8423 54.3347 68.9598 54.3479 69.0708 54.3844L97.1104 64.0087C97.2056 64.041 97.2932 64.0924 97.3678 64.1598C97.4423 64.2273 97.5023 64.3093 97.5438 64.4008C97.5854 64.4924 97.6078 64.5915 97.6095 64.692C97.6113 64.7925 97.5924 64.8923 97.554 64.9852C97.4717 65.1796 97.3186 65.3354 97.1257 65.421L72.7948 76.3142C72.678 76.3654 72.5513 76.3905 72.4238 76.3877C69.1655 76.2845 65.8976 76.1726 62.6198 76.0521C59.3421 75.9316 56.0668 75.7897 52.7939 75.6265C51.9745 75.5924 51.1323 75.5722 50.3429 75.5072C50.3445 75.5113 37.525 74.1192 36.0177 74.0501ZM37.6342 73.6748C39.3177 73.7015 60.0642 74.533 63.1803 74.6068C66.2964 74.6807 69.4092 74.7699 72.5391 74.8665L72.1721 74.9383L96.5029 64.0451L96.5207 65.4516L68.4665 55.8143L69.1429 55.7502C66.3218 57.3314 63.4952 58.899 60.6632 60.4531C57.8412 62.0048 39.9254 72.4445 39.9254 72.4445L37.6342 73.6748Z" fill="white"/>
<path d="M48.1967 94.7268C49.1322 93.9462 50.0823 93.155 51.017 92.3606C51.9517 91.5662 52.9156 90.7506 53.8697 89.9343C55.7723 88.2992 57.7236 86.6209 59.6611 84.92C60.6185 84.0646 61.7196 83.2506 62.746 82.4147L65.8585 79.9312C67.9374 78.2772 70.0173 76.6338 72.0983 75.0009C72.1962 74.9269 72.3087 74.8743 72.4283 74.8466C72.5479 74.819 72.6719 74.8168 72.7925 74.8402L107.854 82.3635C107.952 82.3824 108.046 82.4215 108.129 82.4785C108.212 82.5355 108.282 82.6091 108.335 82.6947C108.388 82.7802 108.422 82.8758 108.436 82.9754C108.451 83.075 108.444 83.1765 108.416 83.2733C108.367 83.4428 108.265 83.5922 108.126 83.7C107.986 83.8078 107.816 83.8682 107.639 83.8726L88.1251 83.6586C84.8977 85.0101 81.9633 86.9744 78.6829 88.2058C75.4026 89.4372 72.1043 90.6003 68.7694 91.684C67.9348 91.9528 67.097 92.2136 66.2609 92.4784C65.842 92.6088 65.4279 92.7513 65.0058 92.8736C64.5836 92.9959 64.1566 93.1059 63.7263 93.2079C62.0083 93.6239 60.3034 94.0017 58.5829 94.3292C56.8574 94.6586 55.1157 94.8965 53.3651 95.0421C52.4933 95.1142 51.6181 95.1366 50.7438 95.109C49.8823 95.0858 49.027 94.9574 48.1967 94.7268ZM48.1967 94.7268C48.622 94.7954 49.0516 94.834 49.4823 94.8423C49.9111 94.8541 50.3423 94.8366 50.7654 94.7988C51.6278 94.7402 52.4836 94.6183 53.3353 94.4744C55.0355 94.1787 56.7169 93.7538 58.3853 93.2964C60.0536 92.8391 61.7138 92.3143 63.3617 91.7709C63.7774 91.6324 64.1914 91.4899 64.6119 91.3635L65.8768 90.9927C66.7195 90.7441 67.5524 90.4712 68.3626 90.2121C71.665 89.1415 74.9455 87.9808 78.2055 86.7575C81.4656 85.5343 84.7118 84.2648 87.9108 82.9247C88.0061 82.8861 88.1076 82.8645 88.2104 82.8611L107.706 82.3239L107.492 83.8232L72.431 76.2999L73.1235 76.1351C71.1334 77.697 69.1476 79.2461 67.1661 80.7825L64.1768 83.0799C63.1682 83.8427 62.2384 84.6257 61.1615 85.3593C59.0451 86.8493 56.915 88.3637 54.7541 89.9187C53.6553 90.7036 52.5923 91.4835 51.5066 92.2772C50.4208 93.071 49.2962 93.9086 48.1967 94.7268Z" fill="white"/>
<path d="M99.3268 21.464C93.1191 29.7978 86.0289 46.8072 99.7721 73.7313C102.97 79.9249 108.374 84.694 114.917 87.0969C123.101 90.1603 133.515 89.9357 138.661 73.202C140.417 67.495 140.998 61.4912 140.368 55.5534C139.05 43.0251 133.987 18.3104 114.57 15.2256C111.703 14.7995 108.774 15.154 106.092 16.2518C103.409 17.3497 101.072 19.1502 99.3268 21.464Z" fill="#DB9D5D"/>
<path d="M101.335 22.9579C95.7147 30.7356 89.399 46.7039 102.357 72.2702C105.326 78.1083 110.336 82.6531 116.434 85.0416C123.997 88.0245 133.568 87.9307 138.111 72.2071C139.663 66.8171 140.131 61.1728 139.487 55.6008C138.133 43.7701 133.209 20.4229 115.312 17.2747C112.684 16.8271 109.983 17.1219 107.514 18.126C105.045 19.13 102.905 20.8035 101.335 22.9579Z" fill="#EFC48E"/>
<path d="M88.1942 83.631C87.1244 83.3958 86.0684 83.1127 85.0359 82.806C84.0034 82.4993 82.949 82.1732 81.9165 81.8194C79.8398 81.1338 77.823 80.2787 75.8864 79.2628C75.3989 78.9873 74.9194 78.7084 74.4643 78.4198C73.9875 78.1106 73.5344 77.7663 73.1087 77.3899C72.6479 76.9852 72.2636 76.5009 71.9743 75.9602C71.9578 75.9244 71.9431 75.8878 71.9303 75.8506L71.8913 75.7532C71.8636 75.6842 71.8375 75.6192 71.8131 75.5584C71.761 75.4285 71.7089 75.2986 71.6502 75.1525C71.5476 74.8968 71.4467 74.6451 71.366 74.3854C70.7011 72.3647 70.147 70.3093 69.7061 68.2282C69.2491 66.1655 68.8563 64.0864 68.5276 61.991C68.3568 60.9428 68.2176 59.8913 68.0946 58.8332C68.0364 58.3006 67.9823 57.7663 67.946 57.2295C67.927 56.9591 67.9121 56.6871 67.9037 56.4077C67.8952 56.1284 67.8925 55.8515 67.9141 55.5412L67.9237 55.4243L67.9398 55.3C67.9442 55.2544 67.9512 55.2091 67.9608 55.1644C67.9636 55.1402 67.9682 55.1163 67.9745 55.0929L67.9931 55.01L68.0182 54.9199C68.0302 54.8814 68.0451 54.8439 68.0628 54.8077L68.0765 54.7598L68.0911 54.7257L68.1437 54.5868L68.1713 54.5145L68.1963 54.4243L68.2522 54.2464C68.2878 54.1237 68.3267 54.0092 68.3549 53.88C68.4884 53.3788 68.6113 52.863 68.7301 52.3488C68.9645 51.3124 69.1908 50.2791 69.4131 49.2475L70.7074 42.9841L70.7163 42.9476C70.7245 42.8977 70.7467 42.8512 70.7803 42.8135L71.9497 41.2888C72.3406 40.7833 72.7242 40.2712 73.1224 39.7722L74.3089 38.2548C74.7071 37.7557 75.1036 37.2526 75.5116 36.7544C75.1898 37.3029 74.8525 37.8481 74.525 38.3942L73.4938 40.0284C73.1606 40.5721 72.8144 41.1068 72.4755 41.648L71.4556 43.2635L71.5269 43.0888C71.2741 45.207 70.9897 47.3207 70.6736 49.4297C70.5026 50.4832 70.3372 51.5391 70.1402 52.5983C70.0351 53.1116 69.9375 53.655 69.8146 54.1944C69.7879 54.3276 69.7491 54.4657 69.7143 54.6021L69.6618 54.8117L69.6335 54.9173L69.5962 55.0359L69.508 55.274L69.4853 55.3349L69.4781 55.3991L69.4741 55.4713L69.4677 55.5493C69.463 55.7726 69.4681 56.0203 69.483 56.2688C69.4979 56.5173 69.5177 56.7779 69.5439 57.0313C69.5924 57.5396 69.6538 58.0568 69.7194 58.5725C69.8544 59.602 70.0188 60.634 70.1937 61.6806C70.5342 63.743 70.9186 65.7972 71.3469 67.8432C71.5551 68.867 71.7811 69.8884 72.0217 70.8992C72.2624 71.91 72.5209 72.9183 72.8167 73.8787C72.8917 74.1282 72.9699 74.3701 73.0513 74.6045C73.0969 74.7181 73.1441 74.8358 73.1897 74.9495L73.2923 75.2052C73.3021 75.2295 73.3103 75.2498 73.32 75.2741C73.525 75.6805 73.7972 76.0492 74.1252 76.3647C74.4784 76.7125 74.8574 77.033 75.259 77.3234C75.6695 77.63 76.1043 77.9267 76.5496 78.191C77.4345 78.7406 78.3657 79.2529 79.3156 79.7294C80.2654 80.2059 81.2363 80.6645 82.2227 81.1028C84.1548 82.0428 86.1559 82.8609 88.1942 83.631Z" fill="white"/>
<path d="M72.8077 73.9388C75.1841 76.6395 77.3457 79.5219 79.273 82.5595C81.2454 85.6071 82.8872 88.8565 84.1704 92.2523C84.8208 93.9812 85.2916 95.7724 85.5753 97.5976C85.8817 99.4825 85.8563 101.406 85.5001 103.282C85.1034 105.22 84.1799 107.011 82.8314 108.457C81.4862 109.849 79.8639 110.943 78.0695 111.669C74.7901 113.079 71.5208 114.518 68.2616 115.986C64.9936 117.424 61.7533 118.931 58.5106 120.421C56.8889 121.171 55.2826 121.947 53.6746 122.719C52.0667 123.492 50.4669 124.284 48.8858 125.112C47.3048 125.94 45.731 126.774 44.202 127.684C43.431 128.134 42.6834 128.622 41.9622 129.148C41.6004 129.405 41.2566 129.686 40.9333 129.99C40.5924 130.274 40.3428 130.653 40.2158 131.079C40.2984 130.632 40.5096 130.22 40.8236 129.892C41.1146 129.546 41.4293 129.219 41.7654 128.916C42.4396 128.314 43.1451 127.748 43.8791 127.22C45.3397 126.163 46.8362 125.195 48.3822 124.244C51.4613 122.382 54.6063 120.649 57.7937 118.998C60.981 117.347 64.2082 115.784 67.446 114.235C70.6838 112.686 73.9639 111.243 77.244 109.799C78.7852 109.199 80.1831 108.282 81.3471 107.107C82.4596 105.925 83.2332 104.466 83.5864 102.882C83.9433 101.237 84.0097 99.5419 83.7825 97.874C83.5578 96.1541 83.1784 94.458 82.6491 92.8062C82.1108 91.1294 81.4789 89.4841 80.7566 87.878C80.0524 86.2757 79.2443 84.6726 78.3997 83.1078C76.7044 79.9517 74.8376 76.8908 72.8077 73.9388Z" fill="white"/>
<path d="M39.9931 135.55C42.4566 134.562 43.6523 131.764 42.6639 129.3C41.6755 126.837 38.8771 125.641 36.4137 126.629C33.9502 127.618 32.7544 130.416 33.7428 132.879C34.7313 135.343 37.5296 136.539 39.9931 135.55Z" fill="#5A281E"/>
<path d="M71.9837 75.7724C74.5142 77.8012 76.8856 80.0208 79.077 82.4119C81.3131 84.8074 83.296 87.4274 84.9941 90.2301C85.8538 91.6606 86.5695 93.1728 87.1306 94.7446C87.7146 96.3547 88.0183 98.053 88.0284 99.7657C88.022 101.523 87.5286 103.245 86.6028 104.739C85.6773 106.172 84.4534 107.387 83.0147 108.304C80.4043 110.042 77.8135 111.806 75.2421 113.595C72.6502 115.355 70.0843 117.181 67.5362 118.981C66.2565 119.89 64.9769 120.823 63.7296 121.743C62.4824 122.663 61.2133 123.61 59.9824 124.571C58.7515 125.531 57.5198 126.501 56.3523 127.549C55.7681 128.066 55.2002 128.6 54.6486 129.175C54.3807 129.458 54.133 129.759 53.9073 130.076C53.6563 130.381 53.5025 130.755 53.4659 131.148C53.4581 130.743 53.5701 130.344 53.7879 130.001C53.981 129.651 54.1988 129.315 54.4397 128.995C54.9209 128.362 55.4353 127.754 55.9808 127.175C57.0612 126.016 58.2157 124.936 59.3685 123.875C61.7222 121.766 64.1555 119.763 66.6385 117.824C69.1214 115.885 71.6539 114.012 74.1987 112.157C76.7434 110.302 79.3419 108.533 81.9322 106.768C83.17 106.003 84.2286 104.981 85.0361 103.77C85.804 102.548 86.2245 101.139 86.2523 99.6961C86.2799 98.1883 86.0504 96.6869 85.5736 95.2563C85.0784 93.7706 84.4577 92.3298 83.7182 90.9493C82.9773 89.5418 82.1615 88.1751 81.2744 86.8549C80.3805 85.5313 79.4144 84.2509 78.4109 82.9948C76.3975 80.4755 74.2521 78.0647 71.9837 75.7724Z" fill="white"/>
<path d="M55.3162 129.218C55.7394 129.931 55.943 130.753 55.9018 131.581C55.8605 132.408 55.5762 133.206 55.0843 133.873C54.5924 134.54 53.9148 135.047 53.1362 135.331C52.3576 135.615 51.5125 135.664 50.7066 135.47C49.9007 135.276 49.1697 134.85 48.6051 134.243C48.0404 133.636 47.6671 132.876 47.5319 132.059C47.3967 131.241 47.5055 130.401 47.8447 129.645C48.184 128.889 48.7386 128.25 49.4393 127.807C50.406 127.216 51.5679 127.032 52.6698 127.297C53.7717 127.561 54.7235 128.253 55.3162 129.218Z" fill="#5A281E"/>
<path d="M122.924 58.3965C125.262 57.4584 125.904 53.5743 124.358 49.721C122.812 45.8678 119.663 43.5045 117.325 44.4426C114.987 45.3807 114.345 49.2648 115.891 53.1181C117.437 56.9713 120.586 59.3346 122.924 58.3965Z" fill="#DB9D5D"/>
</g>
<defs>
<linearGradient id="paint0_linear_350_4394" x1="58.4722" y1="23.8236" x2="98.2866" y2="115.667" gradientUnits="userSpaceOnUse">
<stop stop-color="white"/>
<stop offset="0.16" stop-color="#FCFCFC"/>
<stop offset="0.29" stop-color="#F1F1F1"/>
<stop offset="0.41" stop-color="#E0E0E0"/>
<stop offset="0.52" stop-color="#C8C8C8"/>
<stop offset="0.63" stop-color="#A8A8A8"/>
<stop offset="0.74" stop-color="#828282"/>
<stop offset="0.84" stop-color="#545454"/>
<stop offset="0.94" stop-color="#202020"/>
<stop offset="1"/>
</linearGradient>
</defs>
</svg>
